<svg width="66" height="62" viewBox="0 0 66 62" fill="none" xmlns="http://www.w3.org/2000/svg">
<path d="M63.1725 0H2.82801C1.2643 0 0 1.2643 0 2.82801V9.15249C0 10.7162 1.2643 11.9805 2.82801 11.9805H3.34827V57.888C3.34827 59.8237 4.9846 61.4601 6.92033 61.4601H59.1523C61.0881 61.4601 62.7244 59.8237 62.7244 57.888V11.9805H63.172C64.7357 11.9805 66 10.7162 66 9.15249V2.82801C65.9244 1.2672 64.7362 0 63.1725 0ZM24.6296 58.7075H6.92032C6.47272 58.7075 6.10067 58.3355 6.10067 57.8879L6.10357 49.1073H24.6291L24.6296 58.7075ZM38.7667 58.7075H27.3819V33.7816C27.3819 33.6334 27.5301 33.5578 27.6057 33.5578H38.4704C38.6186 33.5578 38.6942 33.7061 38.6942 33.7816V58.7075H38.7667ZM59.8993 57.8879C59.8993 58.3355 59.5273 58.7075 59.0797 58.7075H41.5185V50.0028H59.9718V57.8883L59.8993 57.8879ZM59.8993 47.2471H41.5189V33.7812C41.5189 32.1449 40.179 30.805 38.5427 30.805H27.6058C25.9695 30.805 24.6296 32.1449 24.6296 33.7812V46.3542H6.10409V24.3317C6.10409 24.3317 6.17966 24.3317 6.17966 24.4072C6.32789 24.5555 6.55168 24.631 6.77548 24.7037C6.85105 24.7037 6.92371 24.7793 6.92371 24.7793C7.14751 24.8548 7.3713 25.0031 7.66777 25.0757H7.74333C7.96713 25.1513 8.19093 25.224 8.41182 25.224H8.63562C8.93208 25.224 9.15588 25.2995 9.45527 25.2995C9.67907 25.2995 9.90287 25.2995 10.1238 25.224C11.7601 25.0757 13.1756 24.2561 14.1405 23.0674C15.1083 24.2591 16.5209 25.0757 18.1572 25.224C18.381 25.224 18.6048 25.2995 18.8257 25.2995C19.0495 25.2995 19.2733 25.2995 19.4942 25.224C21.1305 25.0757 22.546 24.2561 23.5109 23.0674C24.4788 24.2591 25.8913 25.0757 27.5276 25.224C27.7514 25.224 27.9752 25.2995 28.1961 25.2995C28.4199 25.2995 28.6437 25.2995 28.8646 25.224C30.5009 25.0757 31.9164 24.2561 32.8813 23.0674C33.8492 24.2591 35.2617 25.0757 36.898 25.224C37.1218 25.224 37.3456 25.2995 37.5665 25.2995C37.7903 25.2995 38.0141 25.2995 38.235 25.224C39.8713 25.0757 41.2868 24.2561 42.2517 23.0674C43.2196 24.2591 44.6321 25.0757 46.2684 25.224C46.4922 25.224 46.716 25.2995 46.9369 25.2995C47.1607 25.2995 47.3845 25.2995 47.6054 25.224C49.2417 25.0757 50.6572 24.2561 51.6221 23.0674C52.59 24.2591 54.0025 25.0757 55.6388 25.224C55.8626 25.224 56.0864 25.2995 56.3073 25.2995C56.6038 25.2995 56.9031 25.2995 57.127 25.224H57.3507C57.6472 25.1484 57.871 25.1484 58.1704 25.0002H58.246C58.4698 24.9246 58.6936 24.8519 58.9145 24.7037C58.99 24.7037 58.99 24.6281 59.0627 24.6281C59.2865 24.4799 59.5103 24.4043 59.7312 24.2561L59.7486 47.246L59.8993 47.2471ZM6.10334 19.1969V12.0528H12.7243V19.1969C12.7243 20.5368 11.9046 21.7255 10.7159 22.2488C10.3439 22.397 9.89624 22.5452 9.4516 22.5452C9.004 22.5452 8.55932 22.4697 8.1873 22.2488C6.92009 21.8012 6.10334 20.6124 6.10334 19.1969ZM15.477 19.1969V12.0528H22.0979V19.1969C22.0979 20.5368 21.2782 21.7255 20.0895 22.2488C19.7175 22.397 19.2699 22.5452 18.8252 22.5452C18.3776 22.5452 17.9329 22.4697 17.5609 22.2488C16.2966 21.8012 15.477 20.6124 15.477 19.1969ZM24.8536 19.1969V12.0528H31.4745V19.1969C31.4745 20.5368 30.6548 21.7255 29.4661 22.2488C29.0941 22.397 28.6465 22.5452 28.2018 22.5452C27.7542 22.5452 27.3095 22.4697 26.9375 22.2488C25.7458 21.8012 24.8536 20.6124 24.8536 19.1969ZM34.3023 19.1969V12.0528H40.9232V19.1969C40.9232 20.5368 40.1036 21.7255 38.9149 22.2488C38.5429 22.397 38.0952 22.5452 37.6506 22.5452C37.203 22.5452 36.7583 22.4697 36.3863 22.2488C35.122 21.8012 34.3023 20.6124 34.3023 19.1969ZM43.6789 19.1969V12.0528H50.2998V19.1969C50.2998 20.5368 49.4802 21.7255 48.2915 22.2488C47.9195 22.397 47.4718 22.5452 47.0272 22.5452C46.5796 22.5452 46.1349 22.4697 45.7629 22.2488C44.5712 21.8012 43.6789 20.6124 43.6789 19.1969ZM53.1277 19.1969V12.0528H59.7486V19.1969C59.7486 20.5368 58.929 21.7255 57.7403 22.2488C57.3682 22.397 56.9206 22.5452 56.4759 22.5452C56.0284 22.5452 55.5837 22.4697 55.2116 22.2488C53.9473 21.8012 53.1277 20.6124 53.1277 19.1969ZM63.1725 9.15219H2.82801L2.90358 2.75211L63.1721 2.82768L63.1725 9.15219Z" fill="#F4F6F6"/>
</svg>
