<svg width="69" height="69" viewBox="0 0 69 69" fill="none" xmlns="http://www.w3.org/2000/svg">
<path d="M45.0218 45.2798C48.2238 45.2798 51.2953 44.0063 53.5603 41.7413C55.8253 39.4763 57.0958 36.4048 57.0958 33.2028C57.0958 30.0009 55.8253 26.9294 53.5603 24.6644C51.2953 22.4024 48.2238 21.1289 45.0218 21.1289C41.8199 21.1289 38.7484 22.4024 36.4834 24.6644C34.2214 26.9294 32.9479 30.0009 32.9479 33.2028C32.9479 36.4048 34.2214 39.4763 36.4834 41.7413C38.7484 44.0063 41.8199 45.2798 45.0218 45.2798ZM45.0218 24.6462V24.6432C48.5118 24.6432 51.6561 26.7444 52.9905 29.9676C54.3247 33.1907 53.5879 36.899 51.1228 39.3669C48.6546 41.832 44.9464 42.5718 41.7235 41.2377C38.5004 39.9005 36.3991 36.7563 36.3991 33.269C36.3748 30.9646 37.2754 28.7512 38.8945 27.1138C40.5136 25.4765 42.721 24.5577 45.0224 24.5577L45.0218 24.6462Z" fill="#F4F6F6"/>
<path d="M63.3722 53.6666C59.7822 50.0431 54.8881 48.0177 49.7883 48.0389H40.2586C35.1616 48.0389 30.2772 50.0614 26.6716 53.6666C23.0695 57.2687 21.047 62.1538 21.047 67.2504C21.0592 68.2177 21.8444 68.9969 22.8147 68.9969C23.7789 68.9969 24.5612 68.2147 24.5612 67.2504C24.5612 63.0843 26.2137 59.0908 29.1579 56.1435C32.0991 53.1962 36.0924 51.5377 40.2587 51.5316H49.7884C53.9515 51.5377 57.9449 53.1962 60.8891 56.1435C63.8303 59.0907 65.4858 63.084 65.4858 67.2504C65.498 68.2177 66.2833 68.9969 67.2535 68.9969C68.2178 68.9969 69 68.2147 69 67.2504C69.0122 62.1535 66.9834 57.2628 63.3722 53.6666Z" fill="#F4F6F6"/>
<path d="M23.9792 24.1508C27.1811 24.1508 30.2526 22.8773 32.5177 20.6123C34.7797 18.3473 36.0531 15.2788 36.0531 12.0738C36.0531 8.87191 34.7797 5.8004 32.5177 3.53849C30.2526 1.27347 27.1811 0 23.9792 0C20.7773 0 17.7058 1.27347 15.4408 3.53849C13.1758 5.80048 11.9053 8.87199 11.9053 12.0738C11.9083 15.2757 13.1848 18.3442 15.4468 20.6061C17.7088 22.8711 20.7775 24.1447 23.9792 24.1508ZM23.9792 3.51419C27.4662 3.51419 30.6105 5.61542 31.9479 8.83861C33.2821 12.0617 32.5452 15.7731 30.0771 18.2379C27.6119 20.706 23.9007 21.4428 20.6778 20.1087C17.4547 18.7715 15.3534 15.6273 15.3534 12.14C15.3534 7.37659 19.216 3.51419 23.9792 3.51419Z" fill="#F4F6F6"/>
<path d="M24.5601 28.7401C24.5601 27.7729 23.7809 26.9845 22.8136 26.9724H19.2115C14.1175 26.9724 9.23006 28.9979 5.62761 32.6C2.02547 36.2022 0 41.0904 0 46.1839C0 47.1542 0.77925 47.9395 1.7465 47.9516C2.21648 47.9516 2.66524 47.7667 2.99878 47.4362C3.32928 47.1026 3.51424 46.6539 3.51424 46.1839C3.50817 42.0208 5.16068 38.0242 8.10792 35.08C11.0521 32.1328 15.0484 30.4803 19.2118 30.4863H22.8139C23.2778 30.4863 23.7205 30.3044 24.048 29.9769C24.3754 29.6495 24.5601 29.2041 24.5601 28.7401Z" fill="#F4F6F6"/>
</svg>
