<svg width="70" height="70" viewBox="0 0 70 70" fill="none" xmlns="http://www.w3.org/2000/svg">
<path d="M65.431 51.9949C68.3544 46.8761 70.0001 41.0291 70.0001 34.8142C70.0001 28.5995 68.3544 22.6595 65.431 17.6335C65.3381 17.4514 65.2489 17.3586 65.1561 17.2694C59.1234 6.94229 47.8867 0 35 0C22.2065 0 10.9656 6.9465 4.84396 17.2694C4.75115 17.3622 4.66191 17.5442 4.5691 17.6335C1.64561 22.6595 0 28.5061 0 34.8142C0 54.0976 15.6282 69.7212 34.907 69.7212C47.7005 69.7212 58.9414 62.7747 65.0631 52.4518C65.2487 52.2698 65.3381 52.177 65.431 51.9949ZM3.56624 36.46H15.3527C15.5347 41.0291 16.4485 45.5054 17.9121 49.7104H7.22134C5.11882 45.691 3.84111 41.2111 3.56624 36.46ZM7.22152 19.9217H17.9123C16.3595 24.1267 15.5349 28.5101 15.3529 33.0789H3.56642C3.84128 28.3277 5.119 23.8475 7.22152 19.9217ZM66.5266 33.0789H54.922C54.74 28.5098 53.8262 24.1227 52.3626 19.9217H62.8715C64.974 23.8483 66.2517 28.3281 66.5266 33.0789ZM51.5418 33.0789H36.7388V19.9217H48.7117C50.3537 24.0339 51.3597 28.4174 51.5418 33.0789ZM36.7388 16.5369V3.74341C41.1259 7.30585 44.6883 11.6037 47.1545 16.4437L36.7388 16.4473V16.5369ZM33.3549 3.92892V16.4473H23.121C25.5876 11.6962 29.0608 7.49117 33.3549 3.92892ZM33.3549 19.9208V33.078H18.7337C18.9158 28.5088 19.9224 24.0326 21.568 19.9208H33.3549ZM18.7337 36.4591H33.3549V49.7095H21.5684C19.9228 45.508 18.9194 41.0282 18.7337 36.4591ZM33.3549 53.0897V65.6081C29.0606 62.1349 25.5874 57.8407 23.121 53.0897H33.3549ZM36.7388 65.7936V53.0897H47.1545C44.5951 57.9337 41.1219 62.2279 36.7388 65.7936ZM36.7388 49.7086V36.4582H51.5418C51.3597 41.1201 50.3531 45.5964 48.7075 49.7086H36.7388ZM54.922 36.4582H66.5266C66.2518 41.2093 64.9739 45.7782 62.7785 49.7086H52.3628C53.8263 45.5071 54.74 41.0273 54.922 36.4582ZM60.769 16.536H50.9025C48.8 11.9669 45.7836 7.67265 42.1284 4.1062C49.7138 5.84456 56.2931 10.3245 60.769 16.536ZM28.2388 4.01756C24.4907 7.67284 21.5672 11.8779 19.3755 16.536H9.32349C13.7997 10.2321 20.4714 5.66335 28.2388 4.01756ZM9.32367 53.0888H19.2825C21.4742 57.7507 24.4013 61.9521 28.1458 65.6072C20.4712 63.8724 13.8005 59.3033 9.32367 53.0888ZM42.128 65.5186C45.7833 61.8633 48.7996 57.6583 50.9021 53.0888H60.6791C56.292 59.2142 49.7136 63.7832 42.128 65.5186Z" fill="#F4F6F6"/>
</svg>
