<svg width="75" height="75" viewBox="0 0 75 75" fill="none" xmlns="http://www.w3.org/2000/svg">
<path fill-rule="evenodd" clip-rule="evenodd" d="M9.00489 40.723C9.40478 40.7409 9.79753 40.8337 10.1617 40.9944L12.4361 42.0155C12.5432 41.9655 12.6503 41.9156 12.7574 41.8691C13.0966 41.7192 13.4394 41.5835 13.7857 41.455C14.082 40.6766 14.3784 39.9018 14.6747 39.1235C14.6747 39.1235 15.0353 38.2808 15.6566 37.7881C16.9705 36.7492 19.0306 36.9241 20.7838 37.1276C21.9085 37.2561 22.9332 38.0488 23.3545 39.1235L24.2399 41.455C24.3506 41.4943 24.4613 41.5371 24.572 41.58C24.9147 41.7157 25.2575 41.8585 25.5896 42.0156C26.3501 41.6764 27.107 41.3336 27.8675 40.998C27.8675 40.998 28.8922 40.6088 29.7705 40.7909C30.5525 40.9516 31.1987 41.4693 31.8235 42.0441C32.2306 42.4154 32.6197 42.8046 32.991 43.2116C33.5266 43.7972 34.0371 44.422 34.2014 45.1753C34.3478 45.8287 34.2728 46.5214 34.0015 47.1355L32.9803 49.4098C33.1874 49.849 33.373 50.3024 33.5409 50.7595C33.9979 50.9345 34.4549 51.1058 34.9083 51.2808C35.2297 51.4022 35.551 51.5271 35.8724 51.6485C35.8724 51.6485 36.7721 52.0341 37.2719 52.7161C38.2502 54.0443 38.061 56.0688 37.8682 57.7575C37.7397 58.8894 36.9506 59.907 35.8723 60.3283L33.5408 61.2137C33.3766 61.6708 33.1873 62.1206 32.9802 62.5634C33.3194 63.3239 33.6622 64.0809 34.0014 64.8413C34.0014 64.8413 34.3513 65.7411 34.2442 66.5338C34.0228 68.1904 32.4233 69.5151 31.0915 70.572C30.2025 71.2789 28.9171 71.4396 27.8639 70.979L25.5895 69.9578C25.461 70.0185 25.3539 70.0649 25.3539 70.0649C24.9861 70.2292 24.6148 70.3791 24.2398 70.5148C24.0649 70.9718 23.8935 71.4288 23.7186 71.8823C23.5972 72.2036 23.4722 72.525 23.3508 72.8463C23.3508 72.8463 22.9438 73.7782 22.2404 74.2781C20.8943 75.235 18.8699 75.0278 17.2418 74.8422C16.1064 74.7137 15.0888 73.921 14.6711 72.8463L13.7856 70.5148C13.6499 70.4648 13.5428 70.4255 13.5428 70.4255C13.1679 70.2827 12.8002 70.1256 12.436 69.9543C11.6791 70.2934 10.9185 70.6362 10.1581 70.9754C10.1581 70.9754 9.29759 71.3182 8.51921 71.2253C6.84827 71.029 5.48435 69.4008 4.42746 68.0655C3.71694 67.1729 3.55627 65.8947 4.02043 64.8379L5.04158 62.5635C4.8345 62.1244 4.64883 61.6709 4.48103 61.2139C3.70267 60.9175 2.9279 60.6212 2.14951 60.3248C2.14951 60.3248 1.2819 59.9571 0.782033 59.3037C-0.224864 57.9862 -0.0427338 55.9367 0.153637 54.2194C0.285742 53.0875 1.0748 52.0699 2.14951 51.6487L4.48103 50.7632C4.64527 50.3026 4.8345 49.8527 5.04158 49.4135C4.7024 48.6566 4.35963 47.896 4.02043 47.1356C4.02043 47.1356 3.65982 46.2251 3.78478 45.3933C4.03114 43.7687 5.59859 42.4655 6.93033 41.4086C7.48375 40.9695 8.18356 40.7338 8.89403 40.7302C8.94759 40.7302 8.94759 40.7302 9.00115 40.7338L9.00489 40.723ZM25.7856 66.6906C25.8713 66.7085 25.9355 66.7085 26.1926 66.8085C27.1709 67.2476 28.1492 67.6868 29.131 68.1295C29.1775 68.151 29.2239 68.076 29.2846 68.026C29.938 67.4618 30.5521 66.8477 31.1055 66.1872C31.2269 66.0444 31.0412 65.8445 30.9556 65.6552C30.8092 65.3303 30.6628 65.0054 30.52 64.6805C30.3379 64.277 30.1558 63.87 29.9737 63.4666L29.838 63.1667C29.7916 63.0488 29.7773 63.0203 29.7452 62.8989C29.4917 61.8706 30.3807 60.9601 30.8056 59.5641L30.852 59.432C30.9056 59.3178 30.9163 59.2856 30.9842 59.1821C31.1127 58.9821 31.2841 58.8143 31.4876 58.6929C31.5947 58.6287 31.6268 58.618 31.7411 58.568C32.7444 58.1859 33.7477 57.8039 34.751 57.4254C34.801 57.4076 34.7796 57.3219 34.7831 57.2433C34.8474 56.3829 34.8474 55.5153 34.7724 54.6548C34.7546 54.4549 34.4868 54.4584 34.2904 54.3834C33.9584 54.2549 33.6263 54.1299 33.2906 54.0014C32.8765 53.8443 32.4623 53.6872 32.0445 53.5265L31.7339 53.4087C31.6197 53.3587 31.5875 53.3516 31.4804 53.2838C30.5735 52.7339 30.5557 51.4628 29.8737 50.1775L29.813 50.049C29.7702 49.9311 29.7559 49.9026 29.7273 49.7776C29.6774 49.5455 29.6809 49.3063 29.7381 49.0742C29.7666 48.9529 29.7845 48.9243 29.8309 48.8065C30.27 47.8282 30.7092 46.8499 31.1519 45.868C31.1734 45.8216 31.0984 45.7752 31.0484 45.7145C30.4843 45.0611 29.8701 44.447 29.2132 43.8936C29.0561 43.7615 28.8704 43.9578 28.6812 44.0435C28.3563 44.1899 28.0314 44.3327 27.7065 44.4791C27.303 44.6612 26.896 44.8433 26.4926 45.0254L26.1926 45.1611C26.0748 45.2075 26.0463 45.2218 25.9249 45.2539C24.8823 45.511 23.9468 44.6077 22.5901 44.1934L22.458 44.147C22.3437 44.0935 22.3116 44.0828 22.2081 44.0149C22.0081 43.8864 21.8403 43.715 21.7189 43.5115C21.6546 43.4044 21.6439 43.3723 21.594 43.258C21.2119 42.2547 20.8299 41.2514 20.4514 40.2481C20.4336 40.2017 20.3479 40.2195 20.2693 40.216C19.4053 40.1517 18.5413 40.1553 17.6808 40.2267C17.4773 40.2445 17.4844 40.5123 17.4094 40.7087C17.2809 41.0407 17.1559 41.3728 17.0274 41.7084C16.8703 42.1226 16.7132 42.5368 16.5525 42.9545L16.4347 43.2616C16.3847 43.3759 16.3776 43.408 16.3097 43.5151C15.7527 44.4327 14.4531 44.4576 13.2035 45.1218L13.075 45.1825C12.9571 45.2253 12.9286 45.2396 12.8036 45.2682C12.5715 45.3182 12.3323 45.3146 12.1002 45.2575C11.9788 45.2289 11.9503 45.211 11.8324 45.1646C10.8541 44.7255 9.87586 44.2863 8.89401 43.8436C8.84759 43.8222 8.80118 43.8971 8.74048 43.9471C8.08709 44.5112 7.47299 45.1254 6.91954 45.7859C6.79815 45.9287 6.98381 46.1286 7.0695 46.3179C7.21589 46.6428 7.35871 46.9677 7.50509 47.2926C7.68718 47.6996 7.86928 48.1031 8.05137 48.5065L8.18705 48.8064C8.23346 48.9243 8.24775 48.9528 8.27988 49.0742C8.52981 50.1025 7.64077 51.0237 7.21942 52.409L7.173 52.5411C7.11945 52.6553 7.10874 52.6875 7.0409 52.791C6.91237 52.9909 6.74099 53.1588 6.53747 53.2802C6.43035 53.3444 6.39822 53.3551 6.28397 53.4051C5.28064 53.7872 4.2774 54.1692 3.27407 54.5477C3.23122 54.5655 3.2455 54.6512 3.24193 54.7298C3.17766 55.5902 3.17766 56.4578 3.25264 57.3183C3.2705 57.5254 3.53828 57.5147 3.73465 57.5897C4.0667 57.7182 4.39875 57.8431 4.73442 57.9717C5.14858 58.1288 5.56276 58.2859 5.98052 58.4466L6.28757 58.5644C6.40183 58.6144 6.43397 58.6215 6.54107 58.6894C7.44439 59.2392 7.46936 60.5174 8.14776 61.7992L8.20845 61.9277C8.2513 62.0455 8.26558 62.0741 8.29414 62.199C8.34413 62.4311 8.34056 62.6703 8.28343 62.9024C8.25487 63.0238 8.23702 63.0524 8.19061 63.1702C7.75144 64.1485 7.31227 65.1268 6.86955 66.1086C6.8517 66.1515 6.92668 66.205 6.9731 66.2622C7.53723 66.9155 8.15137 67.5297 8.80829 68.0831C8.95111 68.2045 9.15105 68.0188 9.34028 67.9331C9.66519 67.7868 9.9901 67.6404 10.315 67.4975C10.7185 67.3155 11.1255 67.1334 11.5289 66.9513L11.8288 66.8156C11.9467 66.7692 11.9752 66.7549 12.0966 66.7228C13.132 66.4693 14.0639 67.3654 15.4314 67.7868L15.5635 67.8332C15.6777 67.8868 15.7099 67.8975 15.8134 67.9653C16.0134 68.0938 16.1812 68.2652 16.3026 68.4687C16.3668 68.5759 16.3775 68.608 16.4275 68.7222C16.8096 69.7256 17.1916 70.7288 17.5701 71.7321C17.5879 71.7821 17.6736 71.7607 17.7522 71.7643C18.6126 71.8285 19.4838 71.8285 20.3407 71.7536C20.5299 71.7393 20.5371 71.4679 20.6121 71.2716C20.7406 70.9395 20.8656 70.6075 20.9941 70.2718C21.1512 69.8576 21.3083 69.4434 21.469 69.0257L21.5868 68.7186C21.6368 68.6044 21.6439 68.5722 21.7118 68.4651C22.2688 67.544 23.5827 67.5154 24.818 66.8585C24.818 66.8585 25.0965 66.7228 25.3536 66.6871C25.6214 66.6549 25.6892 66.6835 25.7784 66.6942L25.7856 66.6906ZM19.0624 48.3744C21.9688 48.4029 24.7894 50.2382 25.9712 52.8945C26.896 54.9725 26.821 57.4718 25.7713 59.4927C24.061 62.7776 19.7658 64.5163 16.1383 63.0346C12.9606 61.735 10.9255 58.0967 11.5146 54.6869C12.1073 51.2522 15.2636 48.4565 18.8697 48.3745H19.0661L19.0624 48.3744ZM61.2541 6.25033C62.1681 6.27532 63.0644 6.59666 63.782 7.16078C63.782 7.16078 64.3461 7.63208 64.8316 8.07124C65.9135 9.05309 66.956 10.0742 67.8629 11.2382C68.7948 12.4343 69.0162 14.1338 68.3842 15.562L66.4597 19.8501C66.956 20.8534 67.3809 21.8817 67.7379 22.9349C69.2125 23.4955 70.6907 24.0561 72.1616 24.6238C73.6576 25.2129 74.7037 26.6804 74.843 28.3264C74.8573 28.5013 74.8716 28.6727 74.8823 28.8476C74.9894 30.4079 74.9751 31.9754 74.8502 33.5356C74.8323 33.7677 74.6609 34.8781 74.1539 35.6457C73.6755 36.367 72.9757 36.9311 72.1652 37.2524L67.7415 38.9341C67.3987 39.941 66.9917 40.9299 66.5275 41.8904L66.4633 42.0189C67.1095 43.4578 67.7594 44.9002 68.3985 46.3392C69.0054 47.7424 68.7983 49.4562 67.8165 50.6808C67.7736 50.7344 67.7736 50.7344 67.7308 50.7844C66.524 52.2161 65.2279 53.5943 63.7604 54.7333C62.5786 55.6544 60.9005 55.8722 59.5045 55.2831L59.4402 55.2546L55.1521 53.3301C54.1488 53.8228 53.1205 54.2512 52.0673 54.6082C51.5067 56.0829 50.9461 57.561 50.3784 59.032C49.7965 60.503 48.3504 61.567 46.7616 61.7027C46.6474 61.7134 46.5295 61.7241 46.4153 61.7313C44.7122 61.8598 42.9948 61.8491 41.2952 61.7027L40.8239 61.5849C40.4633 61.3599 40.3241 61.3349 40.0956 60.9565C39.6029 60.1388 40.0742 58.8677 41.0739 58.6356C41.3952 58.5607 41.7237 58.6142 42.0308 58.6356C43.5161 58.7392 45.0085 58.7285 46.4902 58.5999C46.9294 58.5607 47.3186 58.2964 47.4756 57.8966C48.0648 56.372 48.6396 54.8439 49.2216 53.3193L49.4216 52.798C49.5787 52.5231 49.7393 52.241 49.9964 52.0661C50.2749 51.8768 50.6105 51.8054 50.9354 51.6983C52.0993 51.3127 53.2312 50.8307 54.313 50.2559C54.313 50.2559 54.5915 50.1095 54.82 50.0666C55.2413 49.9881 55.3484 50.0666 55.7447 50.1773C57.4086 50.9271 59.0617 51.7091 60.7397 52.4195C61.4717 52.723 62.2037 51.9875 62.9141 51.3306C63.4319 50.8521 63.9282 50.3523 64.4101 49.8346C64.6422 49.5846 64.8671 49.3347 65.0885 49.0776C65.4634 48.6456 65.7705 48.11 65.542 47.5852C64.8779 46.0928 64.2067 44.6039 63.539 43.115L63.3104 42.6045C63.2248 42.301 63.1426 41.9868 63.1998 41.6797C63.2605 41.3477 63.4497 41.0621 63.6032 40.7586C64.1638 39.641 64.6279 38.4806 64.9921 37.281L65.1956 36.8561C65.517 36.5133 65.5205 36.5098 65.9276 36.2812C67.6342 35.6314 69.3552 35.0209 71.0476 34.3354C71.7438 34.0462 71.7688 33.0928 71.8081 32.1824C71.8617 30.9327 71.8474 29.683 71.7224 28.4262C71.6367 27.6693 70.6584 27.3766 69.823 27.0552C68.8911 26.6982 67.9591 26.3447 67.0237 25.9876L66.4489 25.7698L65.9276 25.5699L65.517 25.3378C65.0386 24.8272 64.8458 24.0774 64.6101 23.424C64.2602 22.46 63.8353 21.521 63.3533 20.6141L63.1962 20.1678C63.1819 19.7 63.1819 19.6965 63.3069 19.243C64.0567 17.5792 64.8386 15.9297 65.5491 14.2481C65.849 13.5233 65.1171 12.7841 64.4601 12.0737C63.6389 11.1882 62.7785 10.3385 61.843 9.58859C61.161 9.05303 60.1078 9.71356 59.1258 10.1527C58.1654 10.5812 57.2049 11.0132 56.2445 11.4453L55.734 11.6738C55.4305 11.7595 55.1163 11.8416 54.8092 11.7844C54.4772 11.7237 54.1951 11.5345 53.8881 11.381C52.7705 10.8204 51.6066 10.3563 50.414 9.99211L49.9892 9.78859C49.6464 9.46726 49.6428 9.46368 49.4143 9.05666C48.7645 7.34998 48.154 5.62904 47.4684 3.93662C47.2042 3.30108 46.3759 3.22967 45.5511 3.18683C44.2478 3.11899 42.9375 3.14398 41.6379 3.25467C41.1988 3.29394 40.8096 3.55815 40.6525 3.95804C40.0634 5.48265 39.4886 7.01072 38.9065 8.53533L38.7066 9.05661C38.5495 9.33153 38.3888 9.6136 38.1317 9.78855C37.8532 9.98135 37.5212 10.0492 37.1963 10.1563C36.0538 10.5348 34.9434 11.0096 33.8758 11.5666L33.7544 11.6309L33.3081 11.788C32.8404 11.8023 32.8368 11.8023 32.3834 11.6773C30.7196 10.9276 29.0665 10.1456 27.3884 9.43156C26.6565 9.12808 25.9245 9.86002 25.214 10.5205C24.6963 10.999 24.1964 11.4988 23.718 12.0165C23.4859 12.2665 23.261 12.5164 23.0396 12.7735C22.6647 13.2055 22.3577 13.7411 22.5862 14.2659C23.2503 15.7583 23.9215 17.2472 24.5892 18.7361L24.8177 19.2466C24.9034 19.5501 24.9855 19.8643 24.9284 20.1713C24.8248 20.7141 24.4749 21.1747 24.2321 21.696C23.8001 22.6278 23.4324 23.5847 23.1325 24.5701L22.929 24.995C22.6076 25.3378 22.604 25.3413 22.197 25.5698C20.4903 26.2197 18.7694 26.8302 17.077 27.5157C16.42 27.7871 16.3629 28.6583 16.3236 29.5116C16.2593 30.8148 16.2879 32.1216 16.4057 33.4248L16.3736 33.9103C16.2165 34.3066 16.2129 34.4459 15.8809 34.7351C15.1597 35.3635 13.8279 35.1171 13.4244 34.171C13.3245 33.9389 13.303 33.6783 13.2852 33.439C13.2281 32.7464 13.1959 32.0502 13.1852 31.3539C13.1602 29.5473 13.0567 27.605 13.9814 26.2054C14.4599 25.4842 15.1597 24.9201 15.9702 24.5987L20.3939 22.9171C20.7366 21.9102 21.1437 20.9212 21.6078 19.9607L21.6721 19.8322C21.0258 18.3933 20.376 16.9509 19.7369 15.5119C19.1228 14.0945 19.3477 12.3806 20.3189 11.1703C20.3617 11.1167 20.3617 11.1167 20.4046 11.0667C21.6114 9.63501 22.9075 8.25683 24.3749 7.11786C25.5568 6.1967 27.2384 5.97889 28.6308 6.56801L28.6951 6.59658L32.9832 8.52107C33.9865 8.02478 35.0148 7.59991 36.0681 7.24289C36.6286 5.76828 37.1892 4.29011 37.7569 2.81916C38.3532 1.31247 39.8135 0.277057 41.4595 0.137759C43.3089 -0.0193446 45.1905 -0.0800356 47.0079 0.162753C48.5003 0.362697 49.8429 1.40885 50.3962 2.84415L52.0672 7.23936C52.135 7.26436 52.2064 7.28578 52.2743 7.31078C53.2097 7.63925 54.1308 8.02129 55.0235 8.45331L55.152 8.51758C56.5909 7.87133 58.0333 7.22148 59.4723 6.58239C60.0436 6.33604 60.5684 6.21821 61.2575 6.22892L61.2541 6.25033ZM18.9838 51.4876C16.8059 51.509 14.7957 53.2834 14.5457 55.4686C14.3279 57.3788 15.4705 59.3711 17.2665 60.1316C19.3515 61.0135 22.0473 60.0245 23.0577 57.9608C24.0931 55.8471 23.1505 52.973 20.9368 51.9232C20.3299 51.634 19.6587 51.4912 18.9838 51.4912V51.4876ZM44.1407 19.1574C48.4359 19.1966 52.5955 21.7567 54.5524 25.5734C56.202 28.7939 56.2484 32.7857 54.681 36.0418C52.4673 40.6298 47.0973 43.4754 41.9129 42.515C38.296 41.8437 35.0541 39.3623 33.4545 36.0418C31.905 32.8249 31.9263 28.9009 33.5188 25.7023C35.4468 21.8248 39.6171 19.2005 43.9945 19.1576H44.1444L44.1407 19.1574ZM44.0086 22.2707C40.074 22.3064 36.3465 25.3163 35.5681 29.2402C35.0075 32.0716 35.9715 35.16 38.0531 37.1666C40.456 39.4839 44.255 40.2408 47.3863 38.9375C50.1498 37.7879 52.2278 35.11 52.6456 32.1466C53.1597 28.4655 51.0246 24.5701 47.6291 23.0348C46.4972 22.5242 45.2582 22.2672 44.0086 22.2707Z" fill="#F4F6F6"/>
</svg>
