<svg width="93" height="52" viewBox="0 0 93 52" fill="none" xmlns="http://www.w3.org/2000/svg">
<path d="M74.7677 16.0374C73.17 16.0374 71.6269 16.2657 70.1488 16.6605L67.4861 9.33195C66.863 7.5532 66.9572 6.04256 67.7651 4.83258C68.562 3.62984 69.877 2.98502 70.127 2.91621C70.9675 2.67711 70.7864 0 69.9061 0H59.9365C59.3207 0 58.8208 0.31155 58.8208 0.927399C58.8208 1.54325 59.3207 1.8548 59.9365 1.8548H65.7472C65.7472 1.8548 65.3922 2.50326 65.2256 2.73511C64.4105 3.8835 63.6389 5.56441 63.9612 8.34661H33.4878L32.3286 5.46657L38.1719 3.02853C38.7697 2.7822 38.7045 1.77506 38.0814 1.77506L24.2715 1.7497C24.5323 4.30367 26.7312 6.3432 29.3214 6.51709L30.1039 8.43709L25.1336 17.53C22.9419 16.5772 20.5293 16.041 17.9934 16.041C8.07115 16.041 0 24.105 0 34.0168C0 43.9316 8.07125 52 17.9897 52C27.4881 52 35.2699 44.588 35.8996 35.2419H40.4642C41.9676 35.2419 43.4999 34.8108 44.7715 33.695C45.5141 33.0429 61.0334 19.9185 66.3261 15.4113L67.1702 17.7407C61.0406 20.6099 56.7694 26.8154 56.7694 34.0137C56.7694 43.9286 64.8407 51.9969 74.7591 51.9969C84.6711 51.9969 92.7312 43.9293 92.7312 34.0137C92.7384 24.1017 84.6744 16.038 74.7665 16.038L74.7677 16.0374ZM17.9895 48.489C10.0052 48.489 3.51003 41.9972 3.51003 34.0169C3.51003 26.0398 10.0054 19.5514 17.9895 19.5514C19.9167 19.5514 21.7535 19.939 23.438 20.6236L16.5803 33.1583C16.3123 33.651 16.3231 34.1582 16.6093 34.6437C16.8991 35.1327 17.4172 35.2414 17.9823 35.2414H32.3932C31.7665 42.6497 25.5534 48.489 17.9895 48.489ZM26.2709 22.1778C29.6001 24.5143 31.9077 28.2095 32.3642 32.4589H20.6669L26.2709 22.1778ZM35.8853 32.4589C35.4034 26.8837 32.3749 22.0294 27.9625 19.0728L31.6612 12.2876L39.8847 32.4585L35.8853 32.4589ZM42.877 31.133L34.7876 11.129H64.8631L65.1674 12.0492C61.2079 15.4218 45.011 29.3005 42.877 31.133ZM74.7675 48.4856C66.7831 48.4856 60.288 41.9938 60.288 34.0135C60.288 28.3296 63.5919 23.417 68.3774 21.0512L73.2607 34.5171C73.4962 35.1655 74.1084 35.5893 74.7605 35.5893C74.9417 35.5893 75.1264 35.5712 75.3075 35.5024C76.1371 35.2017 76.5646 34.2924 76.2603 33.4629L71.3552 19.9683C72.4528 19.7038 73.5904 19.5444 74.7713 19.5444C82.7448 19.5444 89.2332 26.0326 89.2332 34.01C89.2296 41.9943 82.7413 48.4856 74.7675 48.4856Z" fill="#F4F6F6"/>
</svg>
