<svg width="64" height="64" viewBox="0 0 64 64" fill="none" xmlns="http://www.w3.org/2000/svg">
<path d="M63.1542 30.1319L57.254 20.3055H57.2509C56.9581 19.8204 56.4303 19.5245 55.8629 19.5245H44.4745V5.96725C44.4501 2.68161 41.7928 0.024367 38.5072 0H1.62642C0.72953 0 0.00039475 0.729126 0.00039475 1.62603C0.00039475 2.52596 0.729522 3.2551 1.62642 3.2551H38.5072C40.0021 3.2673 41.2071 4.47235 41.2194 5.96725V34.1681C41.2194 35.068 41.9485 35.7941 42.8484 35.7941C43.7453 35.7941 44.4745 35.068 44.4745 34.1681V22.7797H54.9538L60.3567 31.804H60.3537C60.6099 32.222 60.7442 32.704 60.7442 33.1921V52.0671H55.863C54.6976 48.2018 51.1373 45.5568 47.0979 45.5568C43.0617 45.5568 39.5015 48.2018 38.3328 52.0671H26.664C25.4956 48.2018 21.9353 45.5568 17.8989 45.5568C13.8597 45.5568 10.2995 48.2018 9.13386 52.0671H3.2551V34.1683C3.2551 33.2714 2.52597 32.5423 1.62603 32.5423C0.729134 32.5423 0 33.2714 0 34.1683V53.6931C0.012203 54.587 0.73218 55.31 1.62603 55.3192H8.74344C9.07597 60.1333 13.0755 63.8671 17.899 63.8671C22.7223 63.8671 26.7219 60.133 27.0546 55.3192H38.0314C38.364 60.1333 42.3635 63.8671 47.187 63.8671C52.0103 63.8671 56.0099 60.133 56.3426 55.3192H62.3739C63.2678 55.31 63.9878 54.587 64 53.6931V33.1921C63.9908 32.1152 63.701 31.0596 63.1549 30.1322L63.1542 30.1319ZM17.8996 60.7429C15.4865 60.7429 13.3112 59.2907 12.3869 57.0607C11.4625 54.8306 11.975 52.2649 13.6803 50.5596C15.3857 48.8542 17.9514 48.3417 20.1815 49.2661C22.4116 50.1905 23.8637 52.3657 23.8637 54.7788C23.8637 58.0736 21.1943 60.7429 17.8996 60.7429ZM47.1868 60.7429C44.7737 60.7429 42.5984 59.2907 41.6741 57.0607C40.7497 54.8306 41.2622 52.2649 42.9675 50.5596C44.6729 48.8542 47.2386 48.3417 49.4687 49.2661C51.6988 50.1905 53.1509 52.3657 53.1509 54.7788C53.1509 58.0736 50.4815 60.7429 47.1868 60.7429Z" fill="#F4F6F6"/>
<path d="M1.62603 14.1022H16.8124C17.7124 14.1022 18.4415 13.3761 18.4415 12.4761C18.4415 11.5762 17.7124 10.8501 16.8124 10.8501H1.62603C0.729134 10.8501 0 11.5762 0 12.4761C0 13.3761 0.729126 14.1022 1.62603 14.1022Z" fill="#F4F6F6"/>
<path d="M1.62603 24.9474H10.3052C11.2021 24.9474 11.9312 24.2183 11.9312 23.3214C11.9312 22.4215 11.2021 21.6923 10.3052 21.6923H1.62603C0.729134 21.6923 0 22.4215 0 23.3214C0 24.2183 0.729126 24.9474 1.62603 24.9474Z" fill="#F4F6F6"/>
</svg>
