<svg width="378" height="79" viewBox="0 0 378 79" fill="none" xmlns="http://www.w3.org/2000/svg">
<rect x="1.5" y="1.5" width="375" height="76" rx="8.5" stroke="white" stroke-width="3"/>
<path d="M60.28 50L51.8 27.6H54.232L61.56 47.568L68.984 27.6H71.352L62.84 50H60.28ZM74.7483 50V33.872H76.9563V50H74.7483ZM75.8683 30.064C75.4203 30.064 75.0363 29.9147 74.7163 29.616C74.3963 29.296 74.2363 28.9013 74.2363 28.432C74.2363 27.9413 74.3856 27.5573 74.6843 27.28C75.0043 26.9813 75.3883 26.832 75.8363 26.832C76.2843 26.832 76.6683 26.9813 76.9883 27.28C77.3083 27.5573 77.4683 27.9413 77.4683 28.432C77.4683 28.9013 77.3083 29.296 76.9883 29.616C76.6896 29.9147 76.3163 30.064 75.8683 30.064ZM88.7465 50.384C87.2532 50.384 85.9305 50.032 84.7785 49.328C83.6478 48.624 82.7518 47.6427 82.0905 46.384C81.4505 45.104 81.1305 43.6107 81.1305 41.904C81.1305 40.1973 81.4505 38.7147 82.0905 37.456C82.7305 36.1973 83.6265 35.2267 84.7785 34.544C85.9518 33.84 87.2958 33.488 88.8105 33.488C90.3678 33.488 91.6798 33.84 92.7465 34.544C93.8345 35.248 94.6558 36.1653 95.2105 37.296C95.7865 38.4267 96.0745 39.664 96.0745 41.008C96.0745 41.2213 96.0745 41.4453 96.0745 41.68C96.0745 41.8933 96.0638 42.1493 96.0425 42.448H82.8265V40.56H93.8985C93.8558 38.9173 93.3438 37.648 92.3625 36.752C91.4025 35.856 90.1865 35.408 88.7145 35.408C87.7545 35.408 86.8585 35.632 86.0265 36.08C85.2158 36.5067 84.5545 37.1467 84.0425 38C83.5518 38.832 83.3065 39.888 83.3065 41.168V42C83.3065 43.4507 83.5625 44.656 84.0745 45.616C84.5865 46.576 85.2585 47.2907 86.0905 47.76C86.9438 48.2293 87.8292 48.464 88.7465 48.464C89.9625 48.464 90.9652 48.1973 91.7545 47.664C92.5438 47.1093 93.1092 46.352 93.4505 45.392H95.6585C95.3812 46.3307 94.9332 47.184 94.3145 47.952C93.7172 48.72 92.9492 49.3173 92.0105 49.744C91.0718 50.1707 89.9838 50.384 88.7465 50.384ZM102.444 50L97.7078 33.872H99.9798L103.82 47.664H103.372L107.532 33.872H110.092L114.252 47.664H113.804L117.644 33.872H119.916L115.18 50H112.908L108.588 35.568H109.036L104.716 50H102.444ZM132.09 50V27.6H139.61C141.188 27.6 142.49 27.856 143.514 28.368C144.538 28.88 145.295 29.5627 145.786 30.416C146.298 31.2693 146.554 32.2187 146.554 33.264C146.554 34.416 146.298 35.376 145.786 36.144C145.295 36.912 144.644 37.4987 143.834 37.904C143.044 38.3093 142.212 38.5653 141.338 38.672L141.754 38.352C142.692 38.3733 143.567 38.6293 144.378 39.12C145.188 39.6107 145.839 40.272 146.33 41.104C146.82 41.9147 147.066 42.8427 147.066 43.888C147.066 44.9973 146.788 46.0213 146.234 46.96C145.7 47.8773 144.9 48.6133 143.834 49.168C142.767 49.7227 141.434 50 139.834 50H132.09ZM134.33 48.112H139.674C141.295 48.112 142.543 47.728 143.418 46.96C144.314 46.192 144.762 45.136 144.762 43.792C144.762 42.448 144.292 41.3813 143.354 40.592C142.436 39.7813 141.178 39.376 139.578 39.376H134.33V48.112ZM134.33 37.52H139.546C141.06 37.52 142.223 37.1573 143.034 36.432C143.844 35.7067 144.25 34.7253 144.25 33.488C144.25 32.2933 143.855 31.3333 143.066 30.608C142.276 29.8613 141.071 29.488 139.45 29.488H134.33V37.52ZM151.248 50V33.872H153.456V50H151.248ZM152.368 30.064C151.92 30.064 151.536 29.9147 151.216 29.616C150.896 29.296 150.736 28.9013 150.736 28.432C150.736 27.9413 150.886 27.5573 151.184 27.28C151.504 26.9813 151.888 26.832 152.336 26.832C152.784 26.832 153.168 26.9813 153.488 27.28C153.808 27.5573 153.968 27.9413 153.968 28.432C153.968 28.9013 153.808 29.296 153.488 29.616C153.19 29.9147 152.816 30.064 152.368 30.064ZM165.439 50.384C163.945 50.384 162.612 50.032 161.439 49.328C160.265 48.624 159.337 47.6427 158.655 46.384C157.972 45.104 157.631 43.632 157.631 41.968C157.631 40.24 157.972 38.7573 158.655 37.52C159.337 36.2613 160.265 35.28 161.439 34.576C162.633 33.8507 163.967 33.488 165.439 33.488C167.316 33.488 168.873 33.9787 170.111 34.96C171.369 35.92 172.169 37.2 172.51 38.8H170.271C170.036 37.7333 169.471 36.912 168.575 36.336C167.7 35.7387 166.644 35.44 165.407 35.44C164.447 35.44 163.551 35.6853 162.719 36.176C161.887 36.6453 161.215 37.36 160.703 38.32C160.191 39.28 159.935 40.496 159.935 41.968C159.935 43.056 160.084 44.0053 160.383 44.816C160.681 45.6267 161.087 46.3093 161.599 46.864C162.111 47.3973 162.697 47.8027 163.359 48.08C164.02 48.3573 164.703 48.496 165.407 48.496C166.217 48.496 166.953 48.368 167.615 48.112C168.297 47.8347 168.873 47.44 169.343 46.928C169.812 46.416 170.121 45.7973 170.271 45.072H172.51C172.191 46.6293 171.401 47.9093 170.143 48.912C168.884 49.8933 167.316 50.384 165.439 50.384ZM178.03 57.04L181.998 48.208H181.134L174.766 33.872H177.198L182.702 46.672L188.494 33.872H190.798L180.366 57.04H178.03ZM199.314 50.384C197.82 50.384 196.487 50.032 195.314 49.328C194.14 48.624 193.212 47.6427 192.53 46.384C191.847 45.104 191.506 43.632 191.506 41.968C191.506 40.24 191.847 38.7573 192.53 37.52C193.212 36.2613 194.14 35.28 195.314 34.576C196.508 33.8507 197.842 33.488 199.314 33.488C201.191 33.488 202.748 33.9787 203.986 34.96C205.244 35.92 206.044 37.2 206.385 38.8H204.146C203.911 37.7333 203.346 36.912 202.45 36.336C201.575 35.7387 200.519 35.44 199.282 35.44C198.322 35.44 197.426 35.6853 196.594 36.176C195.762 36.6453 195.09 37.36 194.578 38.32C194.066 39.28 193.81 40.496 193.81 41.968C193.81 43.056 193.959 44.0053 194.258 44.816C194.556 45.6267 194.962 46.3093 195.474 46.864C195.986 47.3973 196.572 47.8027 197.234 48.08C197.895 48.3573 198.578 48.496 199.282 48.496C200.092 48.496 200.828 48.368 201.49 48.112C202.172 47.8347 202.748 47.44 203.218 46.928C203.687 46.416 203.996 45.7973 204.146 45.072H206.385C206.066 46.6293 205.276 47.9093 204.018 48.912C202.759 49.8933 201.191 50.384 199.314 50.384ZM210.241 50V26.96H212.481V50H210.241ZM223.934 50.384C222.441 50.384 221.118 50.032 219.966 49.328C218.835 48.624 217.939 47.6427 217.278 46.384C216.638 45.104 216.318 43.6107 216.318 41.904C216.318 40.1973 216.638 38.7147 217.278 37.456C217.918 36.1973 218.814 35.2267 219.966 34.544C221.139 33.84 222.483 33.488 223.998 33.488C225.555 33.488 226.867 33.84 227.934 34.544C229.022 35.248 229.843 36.1653 230.398 37.296C230.974 38.4267 231.262 39.664 231.262 41.008C231.262 41.2213 231.262 41.4453 231.262 41.68C231.262 41.8933 231.251 42.1493 231.23 42.448H218.014V40.56H229.086C229.043 38.9173 228.531 37.648 227.55 36.752C226.59 35.856 225.374 35.408 223.902 35.408C222.942 35.408 222.046 35.632 221.214 36.08C220.403 36.5067 219.742 37.1467 219.23 38C218.739 38.832 218.494 39.888 218.494 41.168V42C218.494 43.4507 218.75 44.656 219.262 45.616C219.774 46.576 220.446 47.2907 221.278 47.76C222.131 48.2293 223.017 48.464 223.934 48.464C225.15 48.464 226.153 48.1973 226.942 47.664C227.731 47.1093 228.297 46.352 228.638 45.392H230.846C230.569 46.3307 230.121 47.184 229.502 47.952C228.905 48.72 228.137 49.3173 227.198 49.744C226.259 50.1707 225.171 50.384 223.934 50.384ZM240.848 50.384C239.568 50.384 238.438 50.1707 237.456 49.744C236.496 49.3173 235.718 48.7093 235.12 47.92C234.544 47.1093 234.192 46.1493 234.064 45.04H236.368C236.496 45.6587 236.742 46.224 237.104 46.736C237.488 47.248 238 47.664 238.64 47.984C239.28 48.2827 240.038 48.432 240.912 48.432C241.723 48.432 242.384 48.3147 242.896 48.08C243.43 47.824 243.824 47.4933 244.08 47.088C244.358 46.6613 244.496 46.192 244.496 45.68C244.496 44.976 244.326 44.432 243.984 44.048C243.664 43.6427 243.195 43.344 242.576 43.152C241.958 42.96 241.211 42.7787 240.336 42.608C239.611 42.48 238.918 42.3093 238.256 42.096C237.595 41.8827 236.998 41.6053 236.464 41.264C235.952 40.9227 235.547 40.496 235.248 39.984C234.95 39.4507 234.8 38.832 234.8 38.128C234.8 37.2107 235.024 36.4107 235.472 35.728C235.942 35.024 236.603 34.48 237.456 34.096C238.31 33.6907 239.312 33.488 240.464 33.488C242.107 33.488 243.451 33.904 244.496 34.736C245.542 35.5467 246.15 36.7413 246.32 38.32H244.08C243.995 37.4453 243.632 36.752 242.992 36.24C242.352 35.728 241.488 35.472 240.4 35.472C239.334 35.472 238.512 35.696 237.936 36.144C237.382 36.5707 237.104 37.1573 237.104 37.904C237.104 38.3733 237.254 38.7787 237.552 39.12C237.851 39.4613 238.288 39.76 238.864 40.016C239.462 40.2507 240.187 40.4533 241.04 40.624C242.064 40.816 243.003 41.072 243.856 41.392C244.731 41.6907 245.435 42.16 245.968 42.8C246.523 43.4187 246.8 44.304 246.8 45.456C246.822 46.416 246.587 47.2693 246.096 48.016C245.606 48.7627 244.912 49.3493 244.016 49.776C243.12 50.1813 242.064 50.384 240.848 50.384Z" fill="#F4F6F6"/>
<path d="M320 46L327 39L320 32" stroke="white" stroke-width="2.54545" stroke-linecap="round" stroke-linejoin="round"/>
<path d="M304.091 39L327 39" stroke="white" stroke-width="2.54545" stroke-linecap="round"/>
</svg>
